<mxfile host="app.diagrams.net" modified="2024-05-15T06:49:16.254Z" agent="Mozilla/5.0 (Windows NT 10.0; Win64; x64) AppleWebKit/537.36 (KHTML, like Gecko) Chrome/124.0.0.0 Safari/537.36" version="22.1.20" etag="aHBNdEhJXeIxkEn9_Cwv" type="github">
  <diagram name="第 1 页" id="83Lacd-8nJQzkOmpPxmy">
    <mxGraphModel>
      <root>
        <mxCell id="0" />
        <mxCell id="1" parent="0" />
      </root>
    </mxGraphModel>
  </diagram>
</mxfile>
